<?xml version="1.0" standalone="no"?>
<!DOCTYPE svg PUBLIC "-//W3C//DTD SVG 20010904//EN"
 "http://www.w3.org/TR/2001/REC-SVG-20010904/DTD/svg10.dtd">
<svg version="1.0" xmlns="http://www.w3.org/2000/svg"
 width="824.000000pt" height="824.000000pt" viewBox="0 0 824.000000 824.000000"
 preserveAspectRatio="xMidYMid meet">

<g transform="translate(0.000000,824.000000) scale(0.100000,-0.100000)"
fill="#000000" stroke="none">
<path d="M5365 6739 c-44 -21 -93 -70 -112 -109 -6 -14 -16 -55 -22 -91 -15
-89 -14 -433 1 -478 31 -98 62 -136 138 -170 44 -20 62 -21 791 -21 835 0 804
-3 878 71 69 70 73 89 69 395 -3 256 -4 271 -25 311 -24 44 -79 93 -106 93 -9
0 -19 5 -22 10 -4 7 -274 10 -778 10 -749 -1 -773 -1 -812 -21z m1543 -173
c11 -12 9 -473 -3 -485 -15 -15 -1422 -25 -1459 -11 l-26 10 0 240 c0 240 0
241 23 250 26 11 1454 7 1465 -4z"/>
<path d="M5596 6412 c-24 -5 -32 -37 -28 -114 l4 -68 234 0 234 0 0 90 0 89
-213 3 c-118 2 -222 1 -231 0z"/>
<path d="M6317 6403 c-4 -3 -7 -44 -7 -90 l0 -83 157 0 c155 0 156 0 138 20
-10 11 -25 22 -34 25 -14 4 -17 16 -14 70 l3 65 -118 0 c-65 0 -122 -3 -125
-7z"/>
<path d="M1360 6270 c-8 -5 -29 -10 -47 -10 -17 0 -35 -4 -38 -10 -3 -5 -17
-10 -30 -10 -13 0 -25 -3 -27 -7 -1 -5 -20 -17 -41 -29 -103 -56 -201 -197
-223 -319 -4 -22 -9 -827 -11 -1789 -2 -1296 -6 -1752 -15 -1757 -6 -4 -39
-10 -74 -14 -35 -4 -66 -11 -69 -16 -4 -5 -15 -9 -26 -9 -10 0 -19 -4 -19 -10
0 -5 -6 -10 -13 -10 -16 0 -89 -75 -108 -110 -33 -62 -39 -98 -39 -258 0 -181
6 -202 62 -221 35 -12 1915 -14 1958 -2 14 4 35 22 47 40 21 31 23 45 23 175
0 220 -33 306 -142 377 -55 35 -68 39 -125 39 -42 0 -72 6 -88 16 l-25 16 0
1336 c0 974 3 1339 11 1348 10 12 348 14 2055 14 1697 0 2044 2 2044 13 0 8 7
14 15 14 9 0 14 -6 11 -14 -4 -10 12 -13 76 -13 70 0 79 2 68 15 -7 8 -17 12
-23 8 -6 -4 -8 0 -4 10 3 10 2 17 -3 17 -6 0 -10 -6 -10 -14 0 -18 -56 -29
-82 -15 -16 9 -18 17 -13 51 6 35 5 39 -11 38 -34 -4 -44 0 -44 14 0 8 -4 17
-9 21 -19 11 -100 22 -112 14 -14 -8 -39 6 -39 22 0 5 12 8 28 7 15 -2 126 1
247 6 l220 8 165 153 c91 85 164 157 162 162 -3 8 -21 9 -329 11 -183 2 -193
3 -212 24 -19 19 -19 22 -4 33 23 17 9 45 -22 45 -15 0 -25 6 -25 15 0 9 -6
12 -15 9 -8 -4 -12 -10 -9 -15 3 -5 0 -9 -7 -9 -6 0 -9 8 -6 19 7 29 -11 53
-31 42 -10 -5 -24 -6 -32 -1 -14 7 -2078 19 -3467 20 -635 0 -593 -6 -593 80
0 126 -85 277 -199 354 -38 25 -75 46 -83 46 -8 0 -18 4 -24 9 -18 17 -100 23
-354 27 -158 3 -261 0 -270 -6z m564 -214 c50 -21 95 -65 124 -120 26 -50 26
-55 33 -311 4 -143 5 -263 3 -267 -2 -4 -5 -249 -5 -545 0 -296 -3 -555 -7
-575 -6 -30 -10 -36 -22 -28 -13 9 -13 11 0 20 12 8 13 13 3 30 -16 24 -17 50
-3 50 6 0 10 12 10 28 0 21 -2 24 -10 12 -7 -11 -10 -11 -10 -2 0 7 -4 11 -9
7 -5 -3 -12 3 -14 12 -4 14 -5 13 -6 -4 0 -13 -4 -23 -8 -23 -5 0 -9 10 -9 23
-1 12 -2 33 -3 47 -1 14 0 42 3 62 2 21 0 40 -5 44 -5 3 -5 13 2 25 10 20 4
59 -11 59 -4 0 -11 7 -14 16 -5 14 -4 15 9 4 13 -11 15 -9 15 10 0 13 -3 20
-7 17 -3 -4 -12 -2 -19 4 -16 13 -34 4 -34 -17 0 -8 -4 -14 -10 -14 -15 0 -12
27 6 44 14 15 14 16 0 16 -9 0 -16 8 -16 20 0 11 -6 20 -12 20 -10 0 -10 2 0
8 7 5 10 19 8 33 -3 13 -5 27 -5 32 -1 4 -6 7 -11 7 -6 0 -9 -12 -8 -26 2 -16
-3 -29 -11 -32 -9 -3 -11 0 -7 7 4 7 3 18 -3 25 -9 11 -8 18 4 29 20 21 19 26
-4 20 -15 -4 -19 0 -17 14 2 10 1 12 -1 6 -3 -7 -8 -13 -13 -13 -5 0 -10 6
-13 13 -3 8 -10 6 -21 -8 -16 -19 -17 -19 -11 12 6 31 -8 53 -20 33 -11 -18
-23 -2 -17 25 5 28 0 30 -29 15 -14 -8 -19 -7 -19 2 0 11 64 35 108 40 6 1 12
6 12 11 0 5 -8 6 -17 2 -43 -18 -133 -35 -189 -35 -110 0 -232 49 -315 127
-109 102 -149 202 -149 374 0 60 3 109 8 109 4 0 16 21 26 48 22 55 81 132
135 179 41 35 126 83 147 83 7 0 12 9 11 21 -1 15 -6 19 -19 15 -10 -3 -28 -8
-40 -11 -20 -5 -21 -4 -3 3 13 6 20 19 20 45 2 32 0 35 -16 26 -15 -7 -16 -14
-9 -34 11 -29 5 -32 -17 -10 -8 9 -12 22 -9 30 3 8 1 25 -4 37 -8 20 -15 11
-11 -14 0 -5 -6 -8 -14 -8 -14 0 -19 11 -16 36 1 7 -14 10 -36 8 -50 -3 -50
-3 -33 -14 11 -8 7 -10 -17 -8 l-33 2 23 24 c38 42 85 56 197 62 175 8 449 1
484 -14z m-624 -121 c0 -8 -4 -15 -9 -15 -5 0 -11 7 -15 15 -3 9 0 15 9 15 8
0 15 -7 15 -15z m78 -36 c-2 -6 -8 -10 -13 -10 -5 0 -11 4 -13 10 -2 6 4 11
13 11 9 0 15 -5 13 -11z m-68 -13 c0 -3 -4 -8 -10 -11 -5 -3 -10 -1 -10 4 0 6
5 11 10 11 6 0 10 -2 10 -4z m5157 -245 c0 -11 -6 -17 -14 -14 -16 6 -17 20 0
26 6 3 13 6 14 6 1 1 1 -8 0 -18z m33 -61 c12 -8 12 -11 -3 -28 -9 -10 -17
-23 -17 -29 0 -6 -21 -28 -47 -49 -26 -22 -77 -68 -113 -103 -36 -35 -82 -76
-103 -92 -34 -25 -36 -29 -20 -38 23 -13 39 -12 -242 -11 -214 0 -321 11 -313
31 2 4 77 74 167 157 l164 150 71 5 c39 3 143 6 231 7 88 1 161 3 164 6 8 7
45 4 61 -6z m-1075 -10 c7 -11 -242 -264 -306 -312 l-37 -27 -218 4 c-121 2
-239 7 -263 12 l-44 8 164 150 c90 82 166 153 169 157 3 4 120 9 260 11 140 1
258 3 262 5 4 1 10 -3 13 -8z m-2213 -54 c-20 -30 -47 -60 -59 -67 -12 -8 -52
-44 -90 -80 -37 -36 -89 -80 -115 -97 l-47 -32 -223 1 c-123 0 -242 4 -265 7
l-42 7 172 157 172 158 267 0 267 0 -37 -54z m1117 17 c-18 -34 -63 -83 -78
-83 -4 0 -45 -37 -91 -81 -141 -136 -122 -129 -382 -128 -123 0 -240 3 -261 7
l-38 7 168 157 168 158 266 0 267 0 -19 -37z m2087 -418 c-8 -8 -20 -15 -26
-15 -16 0 12 29 28 30 10 0 10 -4 -2 -15z m-4646 -276 c0 -6 -4 -7 -10 -4 -5
3 -10 11 -10 16 0 6 5 7 10 4 6 -3 10 -11 10 -16z m57 -51 c-3 -8 -6 -5 -6 6
-1 11 2 17 5 13 3 -3 4 -12 1 -19z m240 -623 c8 -22 -6 -33 -17 -15 -13 20
-12 30 0 30 6 0 13 -7 17 -15z m341 -2051 c35 -24 45 -53 47 -141 l3 -83 -39
0 c-32 0 -41 5 -51 25 -10 23 -21 30 -41 26 -5 -1 -6 3 -2 9 3 5 -2 10 -12 10
-10 0 -14 4 -8 8 13 9 18 35 5 27 -6 -4 -10 4 -10 19 0 14 -4 26 -10 26 -5 0
-10 12 -10 26 0 20 -4 25 -18 22 -18 -5 -42 13 -42 32 0 17 162 13 188 -6z"/>
<path d="M1949 5746 c29 -31 35 -33 22 -7 -6 10 -18 22 -28 25 -13 5 -11 1 6
-18z"/>
<path d="M1518 5674 c-58 -18 -132 -87 -161 -152 -57 -128 -4 -286 122 -360
41 -24 56 -27 136 -27 86 0 93 2 143 34 91 58 133 135 131 240 -1 36 -3 48 -7
33 l-7 -23 -22 21 c-13 11 -23 25 -23 30 0 6 -5 10 -11 10 -14 0 -46 36 -54
61 -4 11 -11 19 -16 19 -5 0 -9 10 -9 22 0 12 -3 19 -6 16 -9 -10 -87 70 -79
81 9 16 -80 13 -137 -5z"/>
<path d="M2010 4508 c0 -4 4 -8 9 -8 6 0 12 4 15 8 3 5 -1 9 -9 9 -8 0 -15 -4
-15 -9z"/>
<path d="M6445 5740 c3 -5 8 -10 11 -10 2 0 4 5 4 10 0 6 -5 10 -11 10 -5 0
-7 -4 -4 -10z"/>
<path d="M6470 5739 c0 -5 5 -7 10 -4 6 3 10 1 10 -4 0 -6 4 -11 10 -11 5 0 7
7 4 15 -7 17 -34 21 -34 4z"/>
<path d="M6545 5120 c-3 -5 -1 -10 4 -10 6 0 11 5 11 10 0 6 -2 10 -4 10 -3 0
-8 -4 -11 -10z"/>
<path d="M5616 4565 c-9 -13 -16 -31 -16 -39 0 -22 -23 -26 -166 -26 l-134 0
0 -35 0 -34 148 -3 147 -3 3 -37 c4 -46 -1 -47 -146 -51 l-104 -2 -14 -40 c-7
-22 -14 -51 -14 -65 0 -15 -5 -31 -11 -37 -6 -6 -9 -26 -7 -44 l3 -34 98 -3
c53 -1 97 -6 97 -10 0 -16 -47 -62 -83 -81 -21 -12 -54 -21 -74 -21 -51 0
-103 -21 -103 -40 0 -9 11 -27 25 -40 22 -20 28 -22 65 -12 29 7 42 7 47 -2 4
-6 8 -67 8 -136 1 -151 9 -173 63 -168 l37 3 5 120 5 120 287 2 288 2 15 -36
c12 -29 13 -42 3 -69 -8 -23 -9 -47 -2 -81 8 -43 12 -48 38 -51 15 -2 39 -1
52 2 l24 6 0 160 0 160 -49 0 c-28 0 -53 -5 -57 -11 -4 -7 -21 -8 -48 -4 -42
7 -71 8 -316 5 -146 -1 -250 6 -250 18 0 4 21 18 46 32 26 13 67 48 92 77 l46
53 108 0 108 0 2 -27 c0 -16 0 -38 -1 -50 -4 -44 16 -63 64 -63 l45 0 0 70 0
70 124 0 c124 0 124 0 118 -22 -7 -29 -20 -38 -55 -38 -19 0 -31 -7 -39 -24
-19 -42 -5 -56 55 -56 109 0 144 34 154 151 6 57 5 58 -22 65 -16 4 -89 4
-164 1 -153 -6 -171 -1 -171 51 l0 31 138 3 137 3 3 113 3 112 -113 1 c-146 1
-162 6 -166 47 -3 30 -6 32 -41 32 -37 0 -71 -23 -71 -48 0 -19 -36 -32 -85
-32 -58 0 -85 14 -85 43 0 51 -65 66 -94 22z m262 -174 c4 -42 -8 -51 -70 -51
-75 0 -98 13 -98 55 l0 36 83 -3 82 -3 3 -34z m282 0 c0 -26 -5 -41 -16 -45
-25 -10 -88 -7 -123 5 -27 9 -31 16 -31 45 l0 34 85 0 85 0 0 -39z m-570 -151
c0 -16 -7 -36 -16 -44 -29 -29 -164 -14 -164 18 0 6 3 21 6 33 6 20 13 22 83
25 42 2 79 2 84 0 4 -2 7 -16 7 -32z m295 3 c10 -40 -23 -63 -89 -63 -68 0
-109 18 -101 45 2 11 5 26 5 33 0 9 25 12 89 12 88 0 89 0 96 -27z"/>
<path d="M3351 4563 c-12 -13 -12 -21 -1 -50 10 -29 10 -37 -1 -45 -8 -5 -85
-7 -176 -5 l-163 3 0 -26 c0 -60 -1 -60 424 -60 l387 0 -3 38 -3 37 -160 5
-160 5 -27 58 c-27 55 -29 57 -65 57 -22 -1 -44 -8 -52 -17z"/>
<path d="M4353 4569 c-7 -7 -13 -23 -13 -35 0 -13 -4 -26 -10 -29 -5 -3 -10
-19 -10 -34 0 -34 -38 -78 -76 -87 -14 -4 -72 -4 -127 -1 -121 8 -137 1 -137
-53 l0 -40 116 0 116 0 -7 -42 c-4 -24 -20 -62 -36 -85 -16 -23 -29 -44 -29
-48 0 -3 -8 -15 -19 -26 -40 -43 -55 -85 -45 -126 l9 -38 212 -3 213 -2 6 -28
c3 -15 8 -35 11 -44 2 -10 1 -38 -3 -63 l-6 -45 -278 0 c-244 0 -279 -2 -284
-16 -8 -20 3 -67 18 -76 6 -4 129 -8 273 -8 l263 0 5 -22 c3 -13 6 -66 8 -118
l2 -95 53 -3 52 -3 0 120 0 121 231 0 230 0 -3 48 -3 47 -206 1 c-135 1 -213
5 -227 13 -20 11 -22 20 -22 91 l0 80 170 0 170 0 0 50 0 50 -152 0 c-110 1
-158 4 -170 14 -13 10 -18 32 -20 97 l-3 84 -33 3 c-56 6 -72 -18 -72 -104 0
-47 -4 -76 -12 -80 -7 -5 -58 -9 -113 -11 -133 -3 -191 17 -153 55 7 7 37 56
68 109 l56 98 344 2 345 1 3 46 3 46 -298 0 c-363 1 -350 -4 -308 100 21 52
25 74 17 82 -17 17 -105 22 -119 7z"/>
<path d="M2910 4551 c-5 -11 -10 -29 -10 -40 0 -12 -4 -29 -9 -39 -5 -9 -14
-29 -20 -44 -18 -45 -36 -83 -41 -88 -10 -10 -41 -65 -47 -82 -3 -10 -9 -18
-14 -18 -5 0 -9 -5 -9 -12 0 -12 -79 -121 -92 -126 -14 -6 -8 -72 8 -97 23
-35 38 -31 76 21 l33 46 8 -34 c4 -18 7 -166 7 -329 -1 -328 -5 -309 64 -309
l33 0 7 65 c4 36 6 233 6 438 l-1 372 55 120 c31 66 56 126 56 132 0 15 -51
43 -79 43 -11 0 -25 -9 -31 -19z"/>
<path d="M3116 4272 c-4 -20 -7 -55 -7 -77 0 -22 -1 -60 -2 -85 l-2 -45 308
-3 307 -2 0 109 c0 75 -4 112 -12 119 -8 5 -134 12 -300 15 l-286 6 -6 -37z
m499 -69 c14 -32 14 -38 0 -60 -15 -23 -18 -23 -191 -23 -102 0 -183 4 -195
10 -15 8 -19 22 -19 60 l0 50 195 0 195 0 15 -37z"/>
<path d="M3645 3980 c-22 -3 -168 -5 -325 -4 -344 3 -326 8 -322 -104 1 -42 6
-80 10 -84 4 -4 23 -9 42 -10 l35 -3 3 63 3 62 313 0 314 0 12 -29 c7 -17 9
-43 5 -60 l-7 -31 51 0 51 0 0 95 c0 68 -4 97 -12 100 -26 7 -134 11 -173 5z"/>
<path d="M3120 3772 c0 -46 15 -52 126 -52 62 0 105 -4 109 -11 11 -17 6 -181
-6 -195 -8 -10 -36 -14 -86 -14 l-75 0 6 -32 c3 -17 11 -37 17 -45 17 -19 148
-17 200 4 57 22 69 55 69 188 l0 105 110 0 110 0 0 28 c0 51 -3 52 -302 52
l-278 0 0 -28z"/>
<path d="M5751 3759 c-17 -18 -31 -40 -31 -50 0 -22 -94 -120 -130 -136 -42
-18 -82 -30 -145 -43 -33 -6 -70 -16 -83 -21 -13 -5 -45 -9 -71 -9 -57 0 -69
-16 -46 -61 19 -36 50 -38 190 -8 173 37 269 81 334 156 43 48 74 126 69 170
-5 43 -48 44 -87 2z"/>
<path d="M5858 3605 c-16 -9 -28 -20 -28 -25 0 -17 43 -38 124 -60 77 -21 225
-73 298 -104 21 -9 39 -16 42 -16 7 0 46 66 46 77 0 10 -63 43 -83 43 -6 0
-39 14 -72 30 -105 52 -280 81 -327 55z"/>
</g>
</svg>
